<svg xmlns="http://www.w3.org/2000/svg" viewBox="0 0 64 64" role="img" aria-label="Boing Finance">
  <title>Boing Finance</title>
  <defs>
    <radialGradient id="boing-mark-disc" cx="32%" cy="28%" r="78%">
      <stop offset="0%" stop-color="#1e2836"/>
      <stop offset="45%" stop-color="#121a24"/>
      <stop offset="100%" stop-color="#06080c"/>
    </radialGradient>
    <linearGradient id="boing-mark-rim" x1="0%" y1="0%" x2="100%" y2="100%">
      <stop offset="0%" stop-color="rgba(255,255,255,0.14)"/>
      <stop offset="50%" stop-color="rgba(138,154,175,0.12)"/>
      <stop offset="100%" stop-color="rgba(255,255,255,0.05)"/>
    </linearGradient>
    <linearGradient id="boing-mark-b" x1="0%" y1="0%" x2="0%" y2="100%">
      <stop offset="0%" stop-color="#e9eef5" stop-opacity="0.95"/>
      <stop offset="42%" stop-color="#00e5ff"/>
      <stop offset="100%" stop-color="#123a44"/>
    </linearGradient>
    <linearGradient id="boing-mark-orbit" x1="0%" y1="100%" x2="100%" y2="0%">
      <stop offset="0%" stop-color="rgba(0,229,255,0.28)"/>
      <stop offset="55%" stop-color="#00e5ff"/>
      <stop offset="100%" stop-color="#9dd8f0"/>
    </linearGradient>
    <filter id="boing-mark-soft" x="-20%" y="-20%" width="140%" height="140%">
      <feGaussianBlur in="SourceGraphic" stdDeviation="0.35" result="b"/>
      <feMerge>
        <feMergeNode in="b"/>
        <feMergeNode in="SourceGraphic"/>
      </feMerge>
    </filter>
  </defs>
  <circle cx="32" cy="32" r="30" fill="url(#boing-mark-disc)"/>
  <circle cx="32" cy="32" r="29.25" fill="none" stroke="url(#boing-mark-rim)" stroke-width="0.85" opacity="0.9"/>
  <circle cx="32" cy="32" r="28" fill="none" stroke="rgba(0,0,0,0.35)" stroke-width="0.6"/>
  <path
    d="M 14 38 C 22 22, 38 14, 50 20"
    fill="none"
    stroke="url(#boing-mark-orbit)"
    stroke-width="1.35"
    stroke-linecap="round"
    opacity="0.88"
    filter="url(#boing-mark-soft)"
  />
  <path
    d="M 49.2 19.4 L 50.6 21.8 L 53.2 22.2 L 51.1 24 L 51.6 26.8 L 49 25.5 L 46.4 26.8 L 47 24 L 44.8 22.2 L 47.4 21.8 Z"
    fill="#e9eef5"
    opacity="0.88"
  />
  <!-- Outlined “B” (Orbitron 700) so rasterizers and favicons match the app; <text> used to fall back to wrong fonts. -->
  <path
    fill="url(#boing-mark-b)"
    d="M38.38 40L21.56 40L21.56 19.12L37.57 19.12Q38.67 19.12 39.58 19.67Q40.50 20.22 41.05 21.14Q41.60 22.05 41.60 23.15L41.60 23.15L41.60 27.24Q41.60 27.62 41.54 27.96Q41.48 28.31 41.34 28.63L41.34 28.63Q41.83 29.30 42.14 30.02Q42.44 30.75 42.44 31.47L42.44 31.47L42.44 35.97Q42.44 37.07 41.89 37.98Q41.34 38.90 40.41 39.45Q39.48 40 38.38 40L38.38 40ZM25.74 36.14L25.74 36.14L38.21 36.14Q38.35 36.14 38.47 36.04Q38.58 35.94 38.58 35.80L38.58 35.80L38.58 31.65Q38.58 31.50 38.47 31.40Q38.35 31.30 38.21 31.30L38.21 31.30L25.74 31.30Q25.59 31.30 25.49 31.40Q25.39 31.50 25.39 31.65L25.39 31.65L25.39 35.80Q25.39 35.94 25.49 36.04Q25.59 36.14 25.74 36.14ZM25.74 27.44L25.74 27.44L37.39 27.44Q37.54 27.44 37.63 27.34Q37.71 27.24 37.71 27.09L37.71 27.09L37.71 23.32Q37.71 23.18 37.63 23.08Q37.54 22.98 37.39 22.98L37.39 22.98L25.74 22.98Q25.59 22.98 25.49 23.08Q25.39 23.18 25.39 23.32L25.39 23.32L25.39 27.09Q25.39 27.24 25.49 27.34Q25.59 27.44 25.74 27.44Z"
  />
</svg>
